<svg width="176" height="74" viewBox="0 0 176 74" fill="none" xmlns="http://www.w3.org/2000/svg">
<path d="M41.7694 16.684V22.684H35.8174V47.5H27.4174V22.684H21.5134V16.684H41.7694ZM55.0482 23.548H63.0642V47.5H54.9042V44.908C54.2962 46.636 52.8882 47.5 50.6802 47.5H49.8162C45.5602 47.5 43.4322 45.516 43.4322 41.548V29.5C43.4322 25.532 45.5602 23.548 49.8162 23.548H50.6802C53.1442 23.548 54.6002 24.572 55.0482 26.62V23.548ZM52.7922 41.5H53.6082C54.4722 41.5 54.9042 41.02 54.9042 40.06V30.988C54.9042 30.028 54.4722 29.548 53.6082 29.548H52.7922C51.9922 29.548 51.5922 29.9 51.5922 30.604V40.444C51.5922 41.148 51.9922 41.5 52.7922 41.5ZM75.0409 47.5H66.8809V15.388H75.0409V47.5ZM87.0409 47.5H78.8809V15.388H87.0409V34.444L91.5529 23.548H100.001L94.8649 35.356L100.001 47.5H91.5049L87.0409 36.316V47.5Z" fill="#6A7EFC"/>
<path d="M112.846 17.644V20.476H108.046V47.5H104.782V20.476H99.9822V17.644H112.846ZM122.03 24.22H123.038V27.1H121.598C119.582 27.1 118.574 28.3 118.574 30.7V47.5H115.262V24.22H118.574V26.908C118.83 26.172 119.246 25.548 119.822 25.036C120.43 24.492 121.166 24.22 122.03 24.22ZM129.225 24.22H133.641C136.169 24.22 137.433 25.484 137.433 28.012V36.988H128.745V43.18C128.745 43.82 128.841 44.236 129.033 44.428C129.225 44.588 129.625 44.668 130.233 44.668H132.489C133.129 44.668 133.529 44.588 133.689 44.428C133.881 44.236 133.977 43.82 133.977 43.18V41.068H137.289V43.708C137.289 46.236 136.025 47.5 133.497 47.5H129.225C126.697 47.5 125.433 46.236 125.433 43.708V28.012C125.433 25.484 126.697 24.22 129.225 24.22ZM128.745 34.156H134.121V28.54C134.121 27.932 134.025 27.532 133.833 27.34C133.641 27.148 133.241 27.052 132.633 27.052H130.233C129.625 27.052 129.225 27.148 129.033 27.34C128.841 27.532 128.745 27.932 128.745 28.54V34.156ZM154.477 24.22L149.053 35.212L154.477 47.5H150.925L145.645 35.212L150.925 24.22H154.477ZM141.277 47.5V15.388H144.589V47.5H141.277Z" fill="#494953"/>
<path d="M22.4885 59.718H20.4725V58.318C20.4725 58.0847 20.3512 57.968 20.1085 57.968H19.5345C19.2825 57.968 19.1565 58.0847 19.1565 58.318V63.778C19.1565 63.9087 19.1845 64.002 19.2405 64.058C19.2965 64.1047 19.3945 64.128 19.5345 64.128H20.1085C20.2392 64.128 20.3325 64.1047 20.3885 64.058C20.4445 64.002 20.4725 63.9087 20.4725 63.778V62.42H22.4885V63.96C22.4885 64.9867 21.8959 65.5 20.7105 65.5H18.9185C17.7425 65.5 17.1545 64.9867 17.1545 63.96V58.136C17.1545 57.1093 17.7425 56.596 18.9185 56.596H20.7105C21.8959 56.596 22.4885 57.1093 22.4885 58.136V59.718ZM27.9373 58.57H29.6033C30.2193 58.57 30.6579 58.7053 30.9193 58.976C31.1899 59.2373 31.3253 59.62 31.3253 60.124V63.946C31.3253 64.45 31.1899 64.8373 30.9193 65.108C30.6579 65.3693 30.2193 65.5 29.6033 65.5H27.9373C27.3213 65.5 26.8779 65.3693 26.6073 65.108C26.3459 64.8373 26.2153 64.45 26.2153 63.946V60.124C26.2153 59.62 26.3459 59.2373 26.6073 58.976C26.8779 58.7053 27.3213 58.57 27.9373 58.57ZM29.4073 63.75V60.32C29.4073 60.0867 29.2813 59.97 29.0293 59.97H28.5113C28.2593 59.97 28.1333 60.0867 28.1333 60.32V63.75C28.1333 63.9833 28.2593 64.1 28.5113 64.1H29.0293C29.2813 64.1 29.4073 63.9833 29.4073 63.75ZM38.2756 58.57H38.6256C39.7176 58.57 40.2636 59.088 40.2636 60.124V65.5H38.3036V60.39C38.3036 60.1567 38.1776 60.04 37.9256 60.04H37.5896C37.3189 60.04 37.1836 60.1893 37.1836 60.488V65.5H35.2376V58.57H37.1556V59.354C37.2863 58.8313 37.6596 58.57 38.2756 58.57ZM47.2279 58.57H47.5779C48.6699 58.57 49.216 59.088 49.216 60.124V65.5H47.2559V60.39C47.2559 60.1567 47.1299 60.04 46.8779 60.04H46.5419C46.2713 60.04 46.1359 60.1893 46.1359 60.488V65.5H44.1899V58.57H46.1079V59.354C46.2386 58.8313 46.6119 58.57 47.2279 58.57ZM54.8083 58.57H56.3903C57.5756 58.57 58.1683 59.088 58.1683 60.124V62.574H54.9063V63.764C54.9063 63.8853 54.9343 63.974 54.9903 64.03C55.0463 64.0767 55.1443 64.1 55.2843 64.1H55.9143C56.045 64.1 56.1383 64.072 56.1943 64.016C56.2503 63.96 56.2783 63.8667 56.2783 63.736V63.274H58.1543V63.946C58.1543 64.982 57.5616 65.5 56.3763 65.5H54.8083C53.6323 65.5 53.0443 64.982 53.0443 63.946V60.124C53.0443 59.088 53.6323 58.57 54.8083 58.57ZM54.9063 61.426H56.2923V60.306C56.2923 60.1847 56.2643 60.1007 56.2083 60.054C56.1523 59.998 56.059 59.97 55.9283 59.97H55.2843C55.1443 59.97 55.0463 59.998 54.9903 60.054C54.9343 60.1007 54.9063 60.1847 54.9063 60.306V61.426ZM66.8022 61.062H64.8982V60.39C64.8982 60.1567 64.7722 60.04 64.5202 60.04H64.1562C63.9042 60.04 63.7782 60.1567 63.7782 60.39V63.68C63.7782 63.9133 63.9042 64.03 64.1562 64.03H64.5202C64.7722 64.03 64.8982 63.9133 64.8982 63.68V63.008H66.8022V63.946C66.8022 64.982 66.2096 65.5 65.0242 65.5H63.5962C62.4109 65.5 61.8182 64.982 61.8182 63.946V60.124C61.8182 59.088 62.4109 58.57 63.5962 58.57H65.0242C66.2096 58.57 66.8022 59.088 66.8022 60.124V61.062ZM73.5934 60.04H72.6834V63.666C72.6834 63.89 72.8094 64.002 73.0614 64.002H73.5934V65.5H72.5014C71.3254 65.5 70.7374 64.982 70.7374 63.946V60.04H70.0094V58.57H70.7374V57.282H72.6834V58.57H73.5934V60.04ZM79.8582 63.834V63.05C79.8582 62.9287 79.8302 62.8447 79.7742 62.798C79.7182 62.742 79.6202 62.714 79.4802 62.714H78.6822C77.5156 62.714 76.9322 62.2007 76.9322 61.174V60.124C76.9322 59.088 77.5249 58.57 78.7102 58.57H79.9002C81.0856 58.57 81.6782 59.088 81.6782 60.124V60.74H79.8022V60.236C79.8022 60.1147 79.7742 60.0307 79.7182 59.984C79.6622 59.928 79.5642 59.9 79.4242 59.9H79.2142C79.0742 59.9 78.9762 59.928 78.9202 59.984C78.8642 60.0307 78.8362 60.1147 78.8362 60.236V61.076C78.8362 61.1973 78.8642 61.286 78.9202 61.342C78.9762 61.3887 79.0742 61.412 79.2142 61.412H80.0122C81.1789 61.412 81.7622 61.9207 81.7622 62.938V63.946C81.7622 64.982 81.1696 65.5 79.9842 65.5H78.7382C77.5622 65.5 76.9742 64.982 76.9742 63.946V63.344H78.8782V63.834C78.8782 64.0673 78.9996 64.184 79.2422 64.184H79.4802C79.7322 64.184 79.8582 64.0673 79.8582 63.834ZM93.9153 60.04H93.0053V63.666C93.0053 63.89 93.1313 64.002 93.3833 64.002H93.9153V65.5H92.8233C91.6473 65.5 91.0593 64.982 91.0593 63.946V60.04H90.3313V58.57H91.0593V57.282H93.0053V58.57H93.9153V60.04ZM100.488 58.57H100.838C101.93 58.57 102.476 59.088 102.476 60.124V65.5H100.516V60.39C100.516 60.1567 100.39 60.04 100.138 60.04H99.8021C99.5314 60.04 99.3961 60.1893 99.3961 60.488V65.5H97.4501V56.134H99.3961V59.256C99.5361 58.7987 99.9001 58.57 100.488 58.57ZM108.068 58.57H109.65C110.836 58.57 111.428 59.088 111.428 60.124V62.574H108.166V63.764C108.166 63.8853 108.194 63.974 108.25 64.03C108.306 64.0767 108.404 64.1 108.544 64.1H109.174C109.305 64.1 109.398 64.072 109.454 64.016C109.51 63.96 109.538 63.8667 109.538 63.736V63.274H111.414V63.946C111.414 64.982 110.822 65.5 109.636 65.5H108.068C106.892 65.5 106.304 64.982 106.304 63.946V60.124C106.304 59.088 106.892 58.57 108.068 58.57ZM108.166 61.426H109.552V60.306C109.552 60.1847 109.524 60.1007 109.468 60.054C109.412 59.998 109.319 59.97 109.188 59.97H108.544C108.404 59.97 108.306 59.998 108.25 60.054C108.194 60.1007 108.166 60.1847 108.166 60.306V61.426ZM126.82 58.57H128.626L127.226 65.5H125.126L124.286 60.978L123.432 65.5H121.346L119.988 58.57H121.808L122.48 63.498L123.376 58.57H125.238L126.064 63.47L126.82 58.57ZM133.736 58.57H135.402C136.018 58.57 136.456 58.7053 136.718 58.976C136.988 59.2373 137.124 59.62 137.124 60.124V63.946C137.124 64.45 136.988 64.8373 136.718 65.108C136.456 65.3693 136.018 65.5 135.402 65.5H133.736C133.12 65.5 132.676 65.3693 132.406 65.108C132.144 64.8373 132.014 64.45 132.014 63.946V60.124C132.014 59.62 132.144 59.2373 132.406 58.976C132.676 58.7053 133.12 58.57 133.736 58.57ZM135.206 63.75V60.32C135.206 60.0867 135.08 59.97 134.828 59.97H134.31C134.058 59.97 133.932 60.0867 133.932 60.32V63.75C133.932 63.9833 134.058 64.1 134.31 64.1H134.828C135.08 64.1 135.206 63.9833 135.206 63.75ZM144.312 58.528H144.55V60.222H143.864C143.276 60.222 142.982 60.5487 142.982 61.202V65.5H141.036V58.57H142.954V59.564C143.029 59.256 143.183 59.0087 143.416 58.822C143.649 58.626 143.948 58.528 144.312 58.528ZM149.952 65.5H148.006V56.134H149.952V65.5ZM156.877 56.134H158.823V65.5H156.905V64.716C156.774 65.2387 156.396 65.5 155.771 65.5H155.435C154.343 65.5 153.797 64.982 153.797 63.946V60.11C153.797 59.0833 154.343 58.57 155.435 58.57H155.771C156.368 58.57 156.737 58.7987 156.877 59.256V56.134ZM156.135 64.03H156.457C156.737 64.03 156.877 63.8807 156.877 63.582V60.488C156.877 60.1893 156.737 60.04 156.457 60.04H156.135C155.995 60.04 155.897 60.068 155.841 60.124C155.785 60.1707 155.757 60.2593 155.757 60.39V63.68C155.757 63.9133 155.883 64.03 156.135 64.03Z" fill="#494953"/>
</svg>
